<?xml version="1.0" encoding="UTF-8" standalone="no"?>
<!-- Created with Inkscape (http://www.inkscape.org/) -->

<svg
   xmlns:dc="http://purl.org/dc/elements/1.1/"
   xmlns:cc="http://creativecommons.org/ns#"
   xmlns:rdf="http://www.w3.org/1999/02/22-rdf-syntax-ns#"
   xmlns:svg="http://www.w3.org/2000/svg"
   xmlns="http://www.w3.org/2000/svg"
   xmlns:sodipodi="http://sodipodi.sourceforge.net/DTD/sodipodi-0.dtd"
   xmlns:inkscape="http://www.inkscape.org/namespaces/inkscape"
   id="svg2"
   version="1.1"
   inkscape:version="0.91 r13725"
   xml:space="preserve"
   width="900"
   height="720"
   viewBox="0 0 900 720"
   sodipodi:docname="Amplicon_size_effect.svg"
   inkscape:export-filename="/run/user/1000/gvfs/sftp:host=141.20.60.128/localstorage/victor/AA_Primer_evaluation/Figures/Manuscript/Amplicon_size_effect.png"
   inkscape:export-xdpi="350"
   inkscape:export-ydpi="350"><metadata
     id="metadata8"><rdf:RDF><cc:Work
         rdf:about=""><dc:format>image/svg+xml</dc:format><dc:type
           rdf:resource="http://purl.org/dc/dcmitype/StillImage" /><dc:title></dc:title></cc:Work></rdf:RDF></metadata><defs
     id="defs6"><clipPath
       clipPathUnits="userSpaceOnUse"
       id="clipPath90"><path
         d="m 100.84,46.92 514.1,0 0,501.09 -514.1,0 0,-501.09 z"
         id="path92"
         inkscape:connector-curvature="0" /></clipPath></defs><sodipodi:namedview
     pagecolor="#ffffff"
     bordercolor="#666666"
     borderopacity="1"
     objecttolerance="10"
     gridtolerance="10"
     guidetolerance="10"
     inkscape:pageopacity="1"
     inkscape:pageshadow="2"
     inkscape:window-width="1366"
     inkscape:window-height="710"
     id="namedview4"
     showgrid="false"
     inkscape:zoom="0.32777778"
     inkscape:cx="125.08475"
     inkscape:cy="360"
     inkscape:window-x="0"
     inkscape:window-y="0"
     inkscape:window-maximized="1"
     inkscape:current-layer="g10" /><g
     id="g10"
     inkscape:groupmode="layer"
     inkscape:label="Amplicon_size_effect"
     transform="matrix(1.25,0,0,-1.25,0,720)"><g
       id="g12" /><g
       id="g14" /><g
       id="g16" /><g
       id="g18" /><g
       id="g20" /><g
       id="g22" /><g
       id="g24" /><g
       id="g26" /><g
       id="g28" /><g
       id="g30" /><g
       id="g32" /><g
       id="g34" /><g
       id="g36" /><g
       id="g38" /><g
       id="g40" /><g
       id="g42" /><g
       id="g44" /><g
       id="g46" /><g
       id="g48" /><g
       id="g50" /><g
       id="g52" /><g
       id="g54" /><g
       id="g56" /><g
       id="g58" /><g
       id="g60" /><g
       id="g62" /><g
       id="g64" /><g
       id="g66" /><g
       id="g68" /><g
       id="g70" /><g
       id="g72" /><g
       id="g74" /><g
       id="g76" /><g
       id="g78" /><g
       id="g80"><path
         d="M 0,0 720,0 720,576 0,576 0,0 Z"
         style="fill:#ffffff;fill-opacity:1;fill-rule:nonzero;stroke:#ffffff;stroke-width:1.07000005;stroke-linecap:round;stroke-linejoin:round;stroke-miterlimit:10;stroke-dasharray:none;stroke-opacity:1"
         id="path82"
         inkscape:connector-curvature="0" /></g><g
       id="g84" /><g
       id="g86"><g
         id="g88"
         clip-path="url(#clipPath90)"><path
           d="m 100.84,46.92 514.1,0 0,501.09 -514.1,0 0,-501.09 z"
           style="fill:#ffffff;fill-opacity:1;fill-rule:nonzero;stroke:none"
           id="path94"
           inkscape:connector-curvature="0" /><path
           d="m 100.84,136.52 514.1,0"
           style="fill:none;stroke:#ebebeb;stroke-width:0.52999997;stroke-linecap:butt;stroke-linejoin:round;stroke-miterlimit:10;stroke-dasharray:none;stroke-opacity:1"
           id="path96"
           inkscape:connector-curvature="0" /><path
           d="m 100.84,241.25 514.1,0"
           style="fill:none;stroke:#ebebeb;stroke-width:0.52999997;stroke-linecap:butt;stroke-linejoin:round;stroke-miterlimit:10;stroke-dasharray:none;stroke-opacity:1"
           id="path98"
           inkscape:connector-curvature="0" /><path
           d="m 100.84,345.99 514.1,0"
           style="fill:none;stroke:#ebebeb;stroke-width:0.52999997;stroke-linecap:butt;stroke-linejoin:round;stroke-miterlimit:10;stroke-dasharray:none;stroke-opacity:1"
           id="path100"
           inkscape:connector-curvature="0" /><path
           d="m 100.84,450.72 514.1,0"
           style="fill:none;stroke:#ebebeb;stroke-width:0.52999997;stroke-linecap:butt;stroke-linejoin:round;stroke-miterlimit:10;stroke-dasharray:none;stroke-opacity:1"
           id="path102"
           inkscape:connector-curvature="0" /><path
           d="m 124.21,46.92 0,501.09"
           style="fill:none;stroke:#ebebeb;stroke-width:0.52999997;stroke-linecap:butt;stroke-linejoin:round;stroke-miterlimit:10;stroke-dasharray:none;stroke-opacity:1"
           id="path104"
           inkscape:connector-curvature="0" /><path
           d="m 217.68,46.92 0,501.09"
           style="fill:none;stroke:#ebebeb;stroke-width:0.52999997;stroke-linecap:butt;stroke-linejoin:round;stroke-miterlimit:10;stroke-dasharray:none;stroke-opacity:1"
           id="path106"
           inkscape:connector-curvature="0" /><path
           d="m 311.15,46.92 0,501.09"
           style="fill:none;stroke:#ebebeb;stroke-width:0.52999997;stroke-linecap:butt;stroke-linejoin:round;stroke-miterlimit:10;stroke-dasharray:none;stroke-opacity:1"
           id="path108"
           inkscape:connector-curvature="0" /><path
           d="m 404.63,46.92 0,501.09"
           style="fill:none;stroke:#ebebeb;stroke-width:0.52999997;stroke-linecap:butt;stroke-linejoin:round;stroke-miterlimit:10;stroke-dasharray:none;stroke-opacity:1"
           id="path110"
           inkscape:connector-curvature="0" /><path
           d="m 498.1,46.92 0,501.09"
           style="fill:none;stroke:#ebebeb;stroke-width:0.52999997;stroke-linecap:butt;stroke-linejoin:round;stroke-miterlimit:10;stroke-dasharray:none;stroke-opacity:1"
           id="path112"
           inkscape:connector-curvature="0" /><path
           d="m 591.57,46.92 0,501.09"
           style="fill:none;stroke:#ebebeb;stroke-width:0.52999997;stroke-linecap:butt;stroke-linejoin:round;stroke-miterlimit:10;stroke-dasharray:none;stroke-opacity:1"
           id="path114"
           inkscape:connector-curvature="0" /><path
           d="m 100.84,84.15 514.1,0"
           style="fill:none;stroke:#ebebeb;stroke-width:1.07000005;stroke-linecap:butt;stroke-linejoin:round;stroke-miterlimit:10;stroke-dasharray:none;stroke-opacity:1"
           id="path116"
           inkscape:connector-curvature="0" /><path
           d="m 100.84,188.89 514.1,0"
           style="fill:none;stroke:#ebebeb;stroke-width:1.07000005;stroke-linecap:butt;stroke-linejoin:round;stroke-miterlimit:10;stroke-dasharray:none;stroke-opacity:1"
           id="path118"
           inkscape:connector-curvature="0" /><path
           d="m 100.84,293.62 514.1,0"
           style="fill:none;stroke:#ebebeb;stroke-width:1.07000005;stroke-linecap:butt;stroke-linejoin:round;stroke-miterlimit:10;stroke-dasharray:none;stroke-opacity:1"
           id="path120"
           inkscape:connector-curvature="0" /><path
           d="m 100.84,398.36 514.1,0"
           style="fill:none;stroke:#ebebeb;stroke-width:1.07000005;stroke-linecap:butt;stroke-linejoin:round;stroke-miterlimit:10;stroke-dasharray:none;stroke-opacity:1"
           id="path122"
           inkscape:connector-curvature="0" /><path
           d="m 100.84,503.09 514.1,0"
           style="fill:none;stroke:#ebebeb;stroke-width:1.07000005;stroke-linecap:butt;stroke-linejoin:round;stroke-miterlimit:10;stroke-dasharray:none;stroke-opacity:1"
           id="path124"
           inkscape:connector-curvature="0" /><path
           d="m 170.94,46.92 0,501.09"
           style="fill:none;stroke:#ebebeb;stroke-width:1.07000005;stroke-linecap:butt;stroke-linejoin:round;stroke-miterlimit:10;stroke-dasharray:none;stroke-opacity:1"
           id="path126"
           inkscape:connector-curvature="0" /><path
           d="m 264.42,46.92 0,501.09"
           style="fill:none;stroke:#ebebeb;stroke-width:1.07000005;stroke-linecap:butt;stroke-linejoin:round;stroke-miterlimit:10;stroke-dasharray:none;stroke-opacity:1"
           id="path128"
           inkscape:connector-curvature="0" /><path
           d="m 357.89,46.92 0,501.09"
           style="fill:none;stroke:#ebebeb;stroke-width:1.07000005;stroke-linecap:butt;stroke-linejoin:round;stroke-miterlimit:10;stroke-dasharray:none;stroke-opacity:1"
           id="path130"
           inkscape:connector-curvature="0" /><path
           d="m 451.36,46.92 0,501.09"
           style="fill:none;stroke:#ebebeb;stroke-width:1.07000005;stroke-linecap:butt;stroke-linejoin:round;stroke-miterlimit:10;stroke-dasharray:none;stroke-opacity:1"
           id="path132"
           inkscape:connector-curvature="0" /><path
           d="m 544.84,46.92 0,501.09"
           style="fill:none;stroke:#ebebeb;stroke-width:1.07000005;stroke-linecap:butt;stroke-linejoin:round;stroke-miterlimit:10;stroke-dasharray:none;stroke-opacity:1"
           id="path134"
           inkscape:connector-curvature="0" /><text
           transform="matrix(1,0,0,-1,305.52,441.44)"
           style="font-variant:normal;font-weight:normal;font-size:14.39000034px;font-family:ZapfDingbats;-inkscape-font-specification:ZapfDingbats;writing-mode:lr-tb;fill:#ffc0cb;fill-opacity:1;fill-rule:nonzero;stroke:none"
           id="text136"><tspan
             x="0"
             y="0"
             id="tspan138">●</tspan></text>
<text
           transform="matrix(1,0,0,-1,366.33,410.47)"
           style="font-variant:normal;font-weight:normal;font-size:14.39000034px;font-family:ZapfDingbats;-inkscape-font-specification:ZapfDingbats;writing-mode:lr-tb;fill:#ffc0cb;fill-opacity:1;fill-rule:nonzero;stroke:none"
           id="text140"><tspan
             x="0"
             y="0"
             id="tspan142">●</tspan></text>
<text
           transform="matrix(1,0,0,-1,408.09,385.14)"
           style="font-variant:normal;font-weight:normal;font-size:14.39000034px;font-family:ZapfDingbats;-inkscape-font-specification:ZapfDingbats;writing-mode:lr-tb;fill:#ffc0cb;fill-opacity:1;fill-rule:nonzero;stroke:none"
           id="text144"><tspan
             x="0"
             y="0"
             id="tspan146">●</tspan></text>
<text
           transform="matrix(1,0,0,-1,403.77,377.57)"
           style="font-variant:normal;font-weight:normal;font-size:14.39000034px;font-family:ZapfDingbats;-inkscape-font-specification:ZapfDingbats;writing-mode:lr-tb;fill:#ffc0cb;fill-opacity:1;fill-rule:nonzero;stroke:none"
           id="text148"><tspan
             x="0"
             y="0"
             id="tspan150">●</tspan></text>
<text
           transform="matrix(1,0,0,-1,393.3,388.67)"
           style="font-variant:normal;font-weight:normal;font-size:14.39000034px;font-family:ZapfDingbats;-inkscape-font-specification:ZapfDingbats;writing-mode:lr-tb;fill:#ffc0cb;fill-opacity:1;fill-rule:nonzero;stroke:none"
           id="text152"><tspan
             x="0"
             y="0"
             id="tspan154">●</tspan></text>
<text
           transform="matrix(1,0,0,-1,143.85,64.7)"
           style="font-variant:normal;font-weight:normal;font-size:14.39000034px;font-family:ZapfDingbats;-inkscape-font-specification:ZapfDingbats;writing-mode:lr-tb;fill:#e3dac9;fill-opacity:1;fill-rule:nonzero;stroke:none"
           id="text156"><tspan
             x="0"
             y="0"
             id="tspan158">●</tspan></text>
<text
           transform="matrix(1,0,0,-1,118.52,98.37)"
           style="font-variant:normal;font-weight:normal;font-size:14.39000034px;font-family:ZapfDingbats;-inkscape-font-specification:ZapfDingbats;writing-mode:lr-tb;fill:#ffc0cb;fill-opacity:1;fill-rule:nonzero;stroke:none"
           id="text160"><tspan
             x="0"
             y="0"
             id="tspan162">●</tspan></text>
<text
           transform="matrix(1,0,0,-1,206.33,520.24)"
           style="font-variant:normal;font-weight:normal;font-size:14.39000034px;font-family:ZapfDingbats;-inkscape-font-specification:ZapfDingbats;writing-mode:lr-tb;fill:#ffc0cb;fill-opacity:1;fill-rule:nonzero;stroke:none"
           id="text164"><tspan
             x="0"
             y="0"
             id="tspan166">●</tspan></text>
<text
           transform="matrix(1,0,0,-1,155.92,315.63)"
           style="font-variant:normal;font-weight:normal;font-size:14.39000034px;font-family:ZapfDingbats;-inkscape-font-specification:ZapfDingbats;writing-mode:lr-tb;fill:#ffc0cb;fill-opacity:1;fill-rule:nonzero;stroke:none"
           id="text168"><tspan
             x="0"
             y="0"
             id="tspan170">●</tspan></text>
<text
           transform="matrix(1,0,0,-1,529.77,250.11)"
           style="font-variant:normal;font-weight:normal;font-size:14.39000034px;font-family:ZapfDingbats;-inkscape-font-specification:ZapfDingbats;writing-mode:lr-tb;fill:#440154;fill-opacity:1;fill-rule:nonzero;stroke:none"
           id="text172"><tspan
             x="0"
             y="0"
             id="tspan174">●</tspan></text>
<text
           transform="matrix(1,0,0,-1,333.63,433.17)"
           style="font-variant:normal;font-weight:normal;font-size:14.39000034px;font-family:ZapfDingbats;-inkscape-font-specification:ZapfDingbats;writing-mode:lr-tb;fill:#440154;fill-opacity:1;fill-rule:nonzero;stroke:none"
           id="text176"><tspan
             x="0"
             y="0"
             id="tspan178">●</tspan></text>
<text
           transform="matrix(1,0,0,-1,567.32,184.94)"
           style="font-variant:normal;font-weight:normal;font-size:14.39000034px;font-family:ZapfDingbats;-inkscape-font-specification:ZapfDingbats;writing-mode:lr-tb;fill:#440154;fill-opacity:1;fill-rule:nonzero;stroke:none"
           id="text180"><tspan
             x="0"
             y="0"
             id="tspan182">●</tspan></text>
<text
           transform="matrix(1,0,0,-1,520.33,173)"
           style="font-variant:normal;font-weight:normal;font-size:14.39000034px;font-family:ZapfDingbats;-inkscape-font-specification:ZapfDingbats;writing-mode:lr-tb;fill:#440154;fill-opacity:1;fill-rule:nonzero;stroke:none"
           id="text184"><tspan
             x="0"
             y="0"
             id="tspan186">●</tspan></text>
<text
           transform="matrix(1,0,0,-1,333.56,382.66)"
           style="font-variant:normal;font-weight:normal;font-size:14.39000034px;font-family:ZapfDingbats;-inkscape-font-specification:ZapfDingbats;writing-mode:lr-tb;fill:#440154;fill-opacity:1;fill-rule:nonzero;stroke:none"
           id="text188"><tspan
             x="0"
             y="0"
             id="tspan190">●</tspan></text>
<text
           transform="matrix(1,0,0,-1,529.87,201.75)"
           style="font-variant:normal;font-weight:normal;font-size:14.39000034px;font-family:ZapfDingbats;-inkscape-font-specification:ZapfDingbats;writing-mode:lr-tb;fill:#440154;fill-opacity:1;fill-rule:nonzero;stroke:none"
           id="text192"><tspan
             x="0"
             y="0"
             id="tspan194">●</tspan></text>
<text
           transform="matrix(1,0,0,-1,537.41,235.92)"
           style="font-variant:normal;font-weight:normal;font-size:14.39000034px;font-family:ZapfDingbats;-inkscape-font-specification:ZapfDingbats;writing-mode:lr-tb;fill:#440154;fill-opacity:1;fill-rule:nonzero;stroke:none"
           id="text196"><tspan
             x="0"
             y="0"
             id="tspan198">●</tspan></text>
<text
           transform="matrix(1,0,0,-1,529.79,187.31)"
           style="font-variant:normal;font-weight:normal;font-size:14.39000034px;font-family:ZapfDingbats;-inkscape-font-specification:ZapfDingbats;writing-mode:lr-tb;fill:#440154;fill-opacity:1;fill-rule:nonzero;stroke:none"
           id="text200"><tspan
             x="0"
             y="0"
             id="tspan202">●</tspan></text>
<text
           transform="matrix(1,0,0,-1,333.51,377.11)"
           style="font-variant:normal;font-weight:normal;font-size:14.39000034px;font-family:ZapfDingbats;-inkscape-font-specification:ZapfDingbats;writing-mode:lr-tb;fill:#440154;fill-opacity:1;fill-rule:nonzero;stroke:none"
           id="text204"><tspan
             x="0"
             y="0"
             id="tspan206">●</tspan></text>
<text
           transform="matrix(1,0,0,-1,342.88,352.35)"
           style="font-variant:normal;font-weight:normal;font-size:14.39000034px;font-family:ZapfDingbats;-inkscape-font-specification:ZapfDingbats;writing-mode:lr-tb;fill:#440154;fill-opacity:1;fill-rule:nonzero;stroke:none"
           id="text208"><tspan
             x="0"
             y="0"
             id="tspan210">●</tspan></text>
<text
           transform="matrix(1,0,0,-1,342.69,415.63)"
           style="font-variant:normal;font-weight:normal;font-size:14.39000034px;font-family:ZapfDingbats;-inkscape-font-specification:ZapfDingbats;writing-mode:lr-tb;fill:#440154;fill-opacity:1;fill-rule:nonzero;stroke:none"
           id="text212"><tspan
             x="0"
             y="0"
             id="tspan214">●</tspan></text>
<text
           transform="matrix(1,0,0,-1,553.16,205.56)"
           style="font-variant:normal;font-weight:normal;font-size:14.39000034px;font-family:ZapfDingbats;-inkscape-font-specification:ZapfDingbats;writing-mode:lr-tb;fill:#440154;fill-opacity:1;fill-rule:nonzero;stroke:none"
           id="text216"><tspan
             x="0"
             y="0"
             id="tspan218">●</tspan></text>
<text
           transform="matrix(1,0,0,-1,342.85,424.28)"
           style="font-variant:normal;font-weight:normal;font-size:14.39000034px;font-family:ZapfDingbats;-inkscape-font-specification:ZapfDingbats;writing-mode:lr-tb;fill:#440154;fill-opacity:1;fill-rule:nonzero;stroke:none"
           id="text220"><tspan
             x="0"
             y="0"
             id="tspan222">●</tspan></text>
<text
           transform="matrix(1,0,0,-1,537.21,148.99)"
           style="font-variant:normal;font-weight:normal;font-size:14.39000034px;font-family:ZapfDingbats;-inkscape-font-specification:ZapfDingbats;writing-mode:lr-tb;fill:#440154;fill-opacity:1;fill-rule:nonzero;stroke:none"
           id="text224"><tspan
             x="0"
             y="0"
             id="tspan226">●</tspan></text>
<text
           transform="matrix(1,0,0,-1,360.54,349.39)"
           style="font-variant:normal;font-weight:normal;font-size:14.39000034px;font-family:ZapfDingbats;-inkscape-font-specification:ZapfDingbats;writing-mode:lr-tb;fill:#440154;fill-opacity:1;fill-rule:nonzero;stroke:none"
           id="text228"><tspan
             x="0"
             y="0"
             id="tspan230">●</tspan></text>
<text
           transform="matrix(1,0,0,-1,483.02,134.16)"
           style="font-variant:normal;font-weight:normal;font-size:14.39000034px;font-family:ZapfDingbats;-inkscape-font-specification:ZapfDingbats;writing-mode:lr-tb;fill:#440154;fill-opacity:1;fill-rule:nonzero;stroke:none"
           id="text232"><tspan
             x="0"
             y="0"
             id="tspan234">●</tspan></text>
<text
           transform="matrix(1,0,0,-1,464.34,216.44)"
           style="font-variant:normal;font-weight:normal;font-size:14.39000034px;font-family:ZapfDingbats;-inkscape-font-specification:ZapfDingbats;writing-mode:lr-tb;fill:#440154;fill-opacity:1;fill-rule:nonzero;stroke:none"
           id="text236"><tspan
             x="0"
             y="0"
             id="tspan238">●</tspan></text>
<text
           transform="matrix(1,0,0,-1,305.46,446.48)"
           style="font-variant:normal;font-weight:normal;font-size:14.39000034px;font-family:ZapfDingbats;-inkscape-font-specification:ZapfDingbats;writing-mode:lr-tb;fill:#440154;fill-opacity:1;fill-rule:nonzero;stroke:none"
           id="text240"><tspan
             x="0"
             y="0"
             id="tspan242">●</tspan></text>
<text
           transform="matrix(1,0,0,-1,482.91,235.54)"
           style="font-variant:normal;font-weight:normal;font-size:14.39000034px;font-family:ZapfDingbats;-inkscape-font-specification:ZapfDingbats;writing-mode:lr-tb;fill:#440154;fill-opacity:1;fill-rule:nonzero;stroke:none"
           id="text244"><tspan
             x="0"
             y="0"
             id="tspan246">●</tspan></text>
<text
           transform="matrix(1,0,0,-1,305.46,410.93)"
           style="font-variant:normal;font-weight:normal;font-size:14.39000034px;font-family:ZapfDingbats;-inkscape-font-specification:ZapfDingbats;writing-mode:lr-tb;fill:#440154;fill-opacity:1;fill-rule:nonzero;stroke:none"
           id="text248"><tspan
             x="0"
             y="0"
             id="tspan250">●</tspan></text>
<text
           transform="matrix(1,0,0,-1,277.44,398.98)"
           style="font-variant:normal;font-weight:normal;font-size:14.39000034px;font-family:ZapfDingbats;-inkscape-font-specification:ZapfDingbats;writing-mode:lr-tb;fill:#440154;fill-opacity:1;fill-rule:nonzero;stroke:none"
           id="text252"><tspan
             x="0"
             y="0"
             id="tspan254">●</tspan></text>
<text
           transform="matrix(1,0,0,-1,585.74,183.16)"
           style="font-variant:normal;font-weight:normal;font-size:14.39000034px;font-family:ZapfDingbats;-inkscape-font-specification:ZapfDingbats;writing-mode:lr-tb;fill:#21908c;fill-opacity:1;fill-rule:nonzero;stroke:none"
           id="text256"><tspan
             x="0"
             y="0"
             id="tspan258">●</tspan></text>
<text
           transform="matrix(1,0,0,-1,492.56,448.06)"
           style="font-variant:normal;font-weight:normal;font-size:14.39000034px;font-family:ZapfDingbats;-inkscape-font-specification:ZapfDingbats;writing-mode:lr-tb;fill:#21908c;fill-opacity:1;fill-rule:nonzero;stroke:none"
           id="text260"><tspan
             x="0"
             y="0"
             id="tspan262">●</tspan></text>
<text
           transform="matrix(1,0,0,-1,272.63,491.06)"
           style="font-variant:normal;font-weight:normal;font-size:14.39000034px;font-family:ZapfDingbats;-inkscape-font-specification:ZapfDingbats;writing-mode:lr-tb;fill:#21908c;fill-opacity:1;fill-rule:nonzero;stroke:none"
           id="text264"><tspan
             x="0"
             y="0"
             id="tspan266">●</tspan></text>
<text
           transform="matrix(1,0,0,-1,319.59,344.54)"
           style="font-variant:normal;font-weight:normal;font-size:14.39000034px;font-family:ZapfDingbats;-inkscape-font-specification:ZapfDingbats;writing-mode:lr-tb;fill:#fde725;fill-opacity:1;fill-rule:nonzero;stroke:none"
           id="text268"><tspan
             x="0"
             y="0"
             id="tspan270">●</tspan></text>
<text
           transform="matrix(1,0,0,-1,212.07,276.31)"
           style="font-variant:normal;font-weight:normal;font-size:14.39000034px;font-family:ZapfDingbats;-inkscape-font-specification:ZapfDingbats;writing-mode:lr-tb;fill:#fde725;fill-opacity:1;fill-rule:nonzero;stroke:none"
           id="text272"><tspan
             x="0"
             y="0"
             id="tspan274">●</tspan></text>
<text
           transform="matrix(1,0,0,-1,319.35,361.99)"
           style="font-variant:normal;font-weight:normal;font-size:14.39000034px;font-family:ZapfDingbats;-inkscape-font-specification:ZapfDingbats;writing-mode:lr-tb;fill:#fde725;fill-opacity:1;fill-rule:nonzero;stroke:none"
           id="text276"><tspan
             x="0"
             y="0"
             id="tspan278">●</tspan></text>
<text
           transform="matrix(1,0,0,-1,175.47,257.42)"
           style="font-variant:normal;font-weight:normal;font-size:14.39000034px;font-family:ZapfDingbats;-inkscape-font-specification:ZapfDingbats;writing-mode:lr-tb;fill:#fde725;fill-opacity:1;fill-rule:nonzero;stroke:none"
           id="text280"><tspan
             x="0"
             y="0"
             id="tspan282">●</tspan></text>
<text
           transform="matrix(1,0,0,-1,426.9,333.53)"
           style="font-variant:normal;font-weight:normal;font-size:14.39000034px;font-family:ZapfDingbats;-inkscape-font-specification:ZapfDingbats;writing-mode:lr-tb;fill:#c46210;fill-opacity:1;fill-rule:nonzero;stroke:none"
           id="text284"><tspan
             x="0"
             y="0"
             id="tspan286">●</tspan></text>
<text
           transform="matrix(1,0,0,-1,146.73,398.58)"
           style="font-variant:normal;font-weight:normal;font-size:14.39000034px;font-family:ZapfDingbats;-inkscape-font-specification:ZapfDingbats;writing-mode:lr-tb;fill:#d0ff14;fill-opacity:1;fill-rule:nonzero;stroke:none"
           id="text288"><tspan
             x="0"
             y="0"
             id="tspan290">●</tspan></text>
<path
           d="m 124.21,391.69 5.91,-1.7 5.92,-1.69 5.91,-1.7 5.92,-1.69 5.92,-1.69 5.91,-1.7 5.92,-1.69 5.92,-1.7 5.91,-1.69 5.92,-1.7 5.91,-1.69 5.92,-1.69 5.92,-1.7 5.91,-1.69 5.92,-1.7 5.91,-1.69 5.92,-1.7 5.92,-1.69 5.91,-1.69 5.92,-1.7 5.91,-1.69 5.92,-1.7 5.92,-1.69 5.91,-1.7 5.92,-1.69 5.91,-1.69 5.92,-1.7 5.92,-1.69 5.91,-1.7 5.92,-1.69 5.91,-1.69 5.92,-1.7 5.92,-1.69 5.91,-1.7 5.92,-1.69 5.91,-1.7 5.92,-1.69 5.92,-1.69 5.91,-1.7 5.92,-1.69 5.91,-1.7 5.92,-1.69 5.92,-1.7 5.91,-1.69 5.92,-1.69 5.91,-1.7 5.92,-1.69 5.92,-1.7 5.91,-1.69 5.92,-1.69 5.91,-1.7 5.92,-1.69 5.92,-1.7 5.91,-1.69 5.92,-1.7 5.91,-1.69 5.92,-1.69 5.92,-1.7 5.91,-1.69 5.92,-1.7 5.91,-1.69 5.92,-1.7 5.92,-1.69 5.91,-1.69 5.92,-1.7 5.91,-1.69 5.92,-1.7 5.92,-1.69 5.91,-1.7 5.92,-1.69 5.91,-1.69 5.92,-1.7 5.92,-1.69 5.91,-1.7 5.92,-1.69 5.91,-1.69 5.92,-1.7 5.92,-1.69 5.91,-1.7"
           style="fill:none;stroke:#ff0000;stroke-width:2.13000011;stroke-linecap:butt;stroke-linejoin:round;stroke-miterlimit:10;stroke-dasharray:none;stroke-opacity:1"
           id="path292"
           inkscape:connector-curvature="0" /><path
           d="m 100.84,46.92 514.1,0 0,501.09 -514.1,0 0,-501.09 z"
           style="fill:none;stroke:#333333;stroke-width:1.07000005;stroke-linecap:round;stroke-linejoin:round;stroke-miterlimit:10;stroke-dasharray:none;stroke-opacity:1"
           id="path294"
           inkscape:connector-curvature="0" /></g></g><g
       id="g296" /><g
       id="g298" /><g
       id="g300" /><g
       id="g302" /><g
       id="g304" /><g
       id="g306" /><g
       id="g308" /><g
       id="g310" /><g
       id="g312" /><g
       id="g314" /><g
       id="g316" /><g
       id="g318" /><g
       id="g320" /><g
       id="g322" /><g
       id="g324" /><g
       id="g326"><text
         transform="matrix(1,0,0,-1,50.98,78.41)"
         style="font-variant:normal;font-weight:normal;font-size:16px;font-family:Helvetica;-inkscape-font-specification:Helvetica;writing-mode:lr-tb;fill:#4d4d4d;fill-opacity:1;fill-rule:nonzero;stroke:none"
         id="text328"><tspan
           x="0 8.8959999 17.792 27.136 36.032001"
           y="0"
           sodipodi:role="line"
           id="tspan330">1e+02</tspan></text>
<text
         transform="matrix(1,0,0,-1,50.98,183.14)"
         style="font-variant:normal;font-weight:normal;font-size:16px;font-family:Helvetica;-inkscape-font-specification:Helvetica;writing-mode:lr-tb;fill:#4d4d4d;fill-opacity:1;fill-rule:nonzero;stroke:none"
         id="text332"><tspan
           x="0 8.8959999 17.792 27.136 36.032001"
           y="0"
           sodipodi:role="line"
           id="tspan334">1e+03</tspan></text>
<text
         transform="matrix(1,0,0,-1,50.98,287.88)"
         style="font-variant:normal;font-weight:normal;font-size:16px;font-family:Helvetica;-inkscape-font-specification:Helvetica;writing-mode:lr-tb;fill:#4d4d4d;fill-opacity:1;fill-rule:nonzero;stroke:none"
         id="text336"><tspan
           x="0 8.8959999 17.792 27.136 36.032001"
           y="0"
           sodipodi:role="line"
           id="tspan338">1e+04</tspan></text>
<text
         transform="matrix(1,0,0,-1,50.98,392.61)"
         style="font-variant:normal;font-weight:normal;font-size:16px;font-family:Helvetica;-inkscape-font-specification:Helvetica;writing-mode:lr-tb;fill:#4d4d4d;fill-opacity:1;fill-rule:nonzero;stroke:none"
         id="text340"><tspan
           x="0 8.8959999 17.792 27.136 36.032001"
           y="0"
           sodipodi:role="line"
           id="tspan342">1e+05</tspan></text>
<text
         transform="matrix(1,0,0,-1,50.98,497.35)"
         style="font-variant:normal;font-weight:normal;font-size:16px;font-family:Helvetica;-inkscape-font-specification:Helvetica;writing-mode:lr-tb;fill:#4d4d4d;fill-opacity:1;fill-rule:nonzero;stroke:none"
         id="text344"><tspan
           x="0 8.8959999 17.792 27.136 36.032001"
           y="0"
           sodipodi:role="line"
           id="tspan346">1e+06</tspan></text>
</g><g
       id="g348" /><g
       id="g350"><path
         d="m 98.1,84.15 2.74,0"
         style="fill:none;stroke:#333333;stroke-width:1.07000005;stroke-linecap:butt;stroke-linejoin:round;stroke-miterlimit:10;stroke-dasharray:none;stroke-opacity:1"
         id="path352"
         inkscape:connector-curvature="0" /><path
         d="m 98.1,188.89 2.74,0"
         style="fill:none;stroke:#333333;stroke-width:1.07000005;stroke-linecap:butt;stroke-linejoin:round;stroke-miterlimit:10;stroke-dasharray:none;stroke-opacity:1"
         id="path354"
         inkscape:connector-curvature="0" /><path
         d="m 98.1,293.62 2.74,0"
         style="fill:none;stroke:#333333;stroke-width:1.07000005;stroke-linecap:butt;stroke-linejoin:round;stroke-miterlimit:10;stroke-dasharray:none;stroke-opacity:1"
         id="path356"
         inkscape:connector-curvature="0" /><path
         d="m 98.1,398.36 2.74,0"
         style="fill:none;stroke:#333333;stroke-width:1.07000005;stroke-linecap:butt;stroke-linejoin:round;stroke-miterlimit:10;stroke-dasharray:none;stroke-opacity:1"
         id="path358"
         inkscape:connector-curvature="0" /><path
         d="m 98.1,503.09 2.74,0"
         style="fill:none;stroke:#333333;stroke-width:1.07000005;stroke-linecap:butt;stroke-linejoin:round;stroke-miterlimit:10;stroke-dasharray:none;stroke-opacity:1"
         id="path360"
         inkscape:connector-curvature="0" /></g><g
       id="g362" /><g
       id="g364" /><g
       id="g366" /><g
       id="g368" /><g
       id="g370" /><g
       id="g372" /><g
       id="g374" /><g
       id="g376" /><g
       id="g378" /><g
       id="g380"><path
         d="m 170.94,44.18 0,2.74"
         style="fill:none;stroke:#333333;stroke-width:1.07000005;stroke-linecap:butt;stroke-linejoin:round;stroke-miterlimit:10;stroke-dasharray:none;stroke-opacity:1"
         id="path382"
         inkscape:connector-curvature="0" /><path
         d="m 264.42,44.18 0,2.74"
         style="fill:none;stroke:#333333;stroke-width:1.07000005;stroke-linecap:butt;stroke-linejoin:round;stroke-miterlimit:10;stroke-dasharray:none;stroke-opacity:1"
         id="path384"
         inkscape:connector-curvature="0" /><path
         d="m 357.89,44.18 0,2.74"
         style="fill:none;stroke:#333333;stroke-width:1.07000005;stroke-linecap:butt;stroke-linejoin:round;stroke-miterlimit:10;stroke-dasharray:none;stroke-opacity:1"
         id="path386"
         inkscape:connector-curvature="0" /><path
         d="m 451.36,44.18 0,2.74"
         style="fill:none;stroke:#333333;stroke-width:1.07000005;stroke-linecap:butt;stroke-linejoin:round;stroke-miterlimit:10;stroke-dasharray:none;stroke-opacity:1"
         id="path388"
         inkscape:connector-curvature="0" /><path
         d="m 544.84,44.18 0,2.74"
         style="fill:none;stroke:#333333;stroke-width:1.07000005;stroke-linecap:butt;stroke-linejoin:round;stroke-miterlimit:10;stroke-dasharray:none;stroke-opacity:1"
         id="path390"
         inkscape:connector-curvature="0" /></g><g
       id="g392" /><g
       id="g394"><text
         transform="matrix(1,0,0,-1,157.6,30.5)"
         style="font-variant:normal;font-weight:normal;font-size:16px;font-family:Helvetica;-inkscape-font-specification:Helvetica;writing-mode:lr-tb;fill:#4d4d4d;fill-opacity:1;fill-rule:nonzero;stroke:none"
         id="text396"><tspan
           x="0 8.8959999 17.792"
           y="0"
           sodipodi:role="line"
           id="tspan398">200</tspan></text>
<text
         transform="matrix(1,0,0,-1,251.07,30.5)"
         style="font-variant:normal;font-weight:normal;font-size:16px;font-family:Helvetica;-inkscape-font-specification:Helvetica;writing-mode:lr-tb;fill:#4d4d4d;fill-opacity:1;fill-rule:nonzero;stroke:none"
         id="text400"><tspan
           x="0 8.8959999 17.792"
           y="0"
           sodipodi:role="line"
           id="tspan402">300</tspan></text>
<text
         transform="matrix(1,0,0,-1,344.55,30.5)"
         style="font-variant:normal;font-weight:normal;font-size:16px;font-family:Helvetica;-inkscape-font-specification:Helvetica;writing-mode:lr-tb;fill:#4d4d4d;fill-opacity:1;fill-rule:nonzero;stroke:none"
         id="text404"><tspan
           x="0 8.8959999 17.792"
           y="0"
           sodipodi:role="line"
           id="tspan406">400</tspan></text>
<text
         transform="matrix(1,0,0,-1,438.02,30.5)"
         style="font-variant:normal;font-weight:normal;font-size:16px;font-family:Helvetica;-inkscape-font-specification:Helvetica;writing-mode:lr-tb;fill:#4d4d4d;fill-opacity:1;fill-rule:nonzero;stroke:none"
         id="text408"><tspan
           x="0 8.8959999 17.792"
           y="0"
           sodipodi:role="line"
           id="tspan410">500</tspan></text>
<text
         transform="matrix(1,0,0,-1,531.49,30.5)"
         style="font-variant:normal;font-weight:normal;font-size:16px;font-family:Helvetica;-inkscape-font-specification:Helvetica;writing-mode:lr-tb;fill:#4d4d4d;fill-opacity:1;fill-rule:nonzero;stroke:none"
         id="text412"><tspan
           x="0 8.8959999 17.792"
           y="0"
           sodipodi:role="line"
           id="tspan414">600</tspan></text>
</g><g
       id="g416" /><g
       id="g418" /><g
       id="g420" /><g
       id="g422" /><g
       id="g424" /><g
       id="g426"><text
         transform="matrix(1,0,0,-1,253,9.88)"
         style="font-variant:normal;font-weight:normal;font-size:20px;font-family:Helvetica;-inkscape-font-specification:Helvetica;writing-mode:lr-tb;fill:#000000;fill-opacity:1;fill-rule:nonzero;stroke:none"
         id="text428"><tspan
           x="0 13.34 23.34 34.459999 45.580002 55.580002 61.139999 72.260002 83.379997 88.940002 100.06 116.72 127.84 132.28 136.72 146.72 157.84 168.96001 174.52 184.52 188.96001 198.66"
           y="0"
           sodipodi:role="line"
           id="tspan430">Expected amplicon size</tspan></text>
</g><g
       id="g432" /><g
       id="g434"><text
         transform="matrix(0,1,1,0,43.84,167.48)"
         style="font-variant:normal;font-weight:normal;font-size:20px;font-family:Helvetica;-inkscape-font-specification:Helvetica;writing-mode:lr-tb;fill:#000000;fill-opacity:1;fill-rule:nonzero;stroke:none"
         id="text436"><tspan
           x="0 4.4400001 15.56 26.68 37.799999 48.919998 54.48 64.300003 75.419998 80.980003 92.099998 96.540001 102.1 112.1 123.22 134.34 145.46001 156.58 167.7 177.7 182.14 193.25999 204.38 209.94 216.60001 227.72 238.84 249.96001"
           y="0"
           sodipodi:role="line"
           id="tspan438">log10 Total sequencing reads</tspan></text>
</g><g
       id="g440" /><g
       id="g442" /><g
       id="g444" /><g
       id="g446" /><g
       id="g448" /><g
       id="g450" /><g
       id="g452" /><g
       id="g454"><path
         d="m 625.9,389.34 71.96,0 0,68.48 -71.96,0 0,-68.48 z"
         style="fill:#ffffff;fill-opacity:1;fill-rule:nonzero;stroke:none"
         id="path456"
         inkscape:connector-curvature="0" /></g><g
       id="g458" /><g
       id="g460" /><g
       id="g462" /><g
       id="g470" /><g
       id="g472" /><g
       id="g478" /><g
       id="g486" /><g
       id="g488" /><g
       id="g490" /><g
       id="g498" /><g
       id="g500" /><g
       id="g502" /><g
       id="g504" /><g
       id="g506"><path
         d="m 625.9,137.1 88.62,0 0,241.28 -88.62,0 0,-241.28 z"
         style="fill:#ffffff;fill-opacity:1;fill-rule:nonzero;stroke:none"
         id="path508"
         inkscape:connector-curvature="0" /></g><g
       id="g510" /><g
       id="g512" /><g
       id="g514" /><g
       id="g516"><text
         transform="matrix(1,0,0,-1,631.38,356.34)"
         style="font-variant:normal;font-weight:normal;font-size:20px;font-family:Helvetica;-inkscape-font-specification:Helvetica;writing-mode:lr-tb;fill:#000000;fill-opacity:1;fill-rule:nonzero;stroke:none"
         id="text518"><tspan
           x="0 15.56 26.68"
           y="0"
           sodipodi:role="line"
           id="tspan520">Gen</tspan></text>
</g><g
       id="g522" /><g
       id="g524" /><g
       id="g526"><path
         d="m 631.38,315.38 28.8,0 0,28.8 -28.8,0 0,-28.8 z"
         style="fill:#ffffff;fill-opacity:1;fill-rule:nonzero;stroke:none"
         id="path528"
         inkscape:connector-curvature="0" /></g><g
       id="g530" /><g
       id="g532"><path
         d="m 634.75,329.78 c 0,6.07 4.97,11.03 11.03,11.03 6.06,0 11.02,-4.96 11.02,-11.03 0,-6.06 -4.96,-11.02 -11.02,-11.02 -6.06,0 -11.03,4.96 -11.03,11.02"
         style="fill:#e3dac9;fill-opacity:1;fill-rule:nonzero;stroke:none"
         id="path534"
         inkscape:connector-curvature="0" /></g><g
       id="g536" /><g
       id="g538"><path
         d="m 631.38,286.58 28.8,0 0,28.8 -28.8,0 0,-28.8 z"
         style="fill:#ffffff;fill-opacity:1;fill-rule:nonzero;stroke:none"
         id="path540"
         inkscape:connector-curvature="0" /></g><g
       id="g542" /><g
       id="g544"><path
         d="m 634.75,300.98 c 0,6.07 4.97,11.03 11.03,11.03 6.06,0 11.02,-4.96 11.02,-11.03 0,-6.06 -4.96,-11.02 -11.02,-11.02 -6.06,0 -11.03,4.96 -11.03,11.02"
         style="fill:#ffc0cb;fill-opacity:1;fill-rule:nonzero;stroke:none"
         id="path546"
         inkscape:connector-curvature="0" /></g><g
       id="g548" /><g
       id="g550"><path
         d="m 631.38,257.78 28.8,0 0,28.8 -28.8,0 0,-28.8 z"
         style="fill:#ffffff;fill-opacity:1;fill-rule:nonzero;stroke:none"
         id="path552"
         inkscape:connector-curvature="0" /></g><g
       id="g554" /><g
       id="g556"><path
         d="m 634.75,272.18 c 0,6.07 4.97,11.03 11.03,11.03 6.06,0 11.02,-4.96 11.02,-11.03 0,-6.06 -4.96,-11.02 -11.02,-11.02 -6.06,0 -11.03,4.96 -11.03,11.02"
         style="fill:#440154;fill-opacity:1;fill-rule:nonzero;stroke:none"
         id="path558"
         inkscape:connector-curvature="0" /></g><g
       id="g560" /><g
       id="g562"><path
         d="m 631.38,228.98 28.8,0 0,28.8 -28.8,0 0,-28.8 z"
         style="fill:#ffffff;fill-opacity:1;fill-rule:nonzero;stroke:none"
         id="path564"
         inkscape:connector-curvature="0" /></g><g
       id="g566" /><g
       id="g568"><path
         d="m 634.75,243.38 c 0,6.07 4.97,11.03 11.03,11.03 6.06,0 11.02,-4.96 11.02,-11.03 0,-6.06 -4.96,-11.02 -11.02,-11.02 -6.06,0 -11.03,4.96 -11.03,11.02"
         style="fill:#21908c;fill-opacity:1;fill-rule:nonzero;stroke:none"
         id="path570"
         inkscape:connector-curvature="0" /></g><g
       id="g572" /><g
       id="g574"><path
         d="m 631.38,200.18 28.8,0 0,28.8 -28.8,0 0,-28.8 z"
         style="fill:#ffffff;fill-opacity:1;fill-rule:nonzero;stroke:none"
         id="path576"
         inkscape:connector-curvature="0" /></g><g
       id="g578" /><g
       id="g580"><path
         d="m 634.75,214.58 c 0,6.07 4.97,11.03 11.03,11.03 6.06,0 11.02,-4.96 11.02,-11.03 0,-6.06 -4.96,-11.02 -11.02,-11.02 -6.06,0 -11.03,4.96 -11.03,11.02"
         style="fill:#fde725;fill-opacity:1;fill-rule:nonzero;stroke:none"
         id="path582"
         inkscape:connector-curvature="0" /></g><g
       id="g584" /><g
       id="g586"><path
         d="m 631.38,171.38 28.8,0 0,28.8 -28.8,0 0,-28.8 z"
         style="fill:#ffffff;fill-opacity:1;fill-rule:nonzero;stroke:none"
         id="path588"
         inkscape:connector-curvature="0" /></g><g
       id="g590" /><g
       id="g592"><path
         d="m 634.75,185.78 c 0,6.07 4.97,11.03 11.03,11.03 6.06,0 11.02,-4.96 11.02,-11.03 0,-6.06 -4.96,-11.02 -11.02,-11.02 -6.06,0 -11.03,4.96 -11.03,11.02"
         style="fill:#c46210;fill-opacity:1;fill-rule:nonzero;stroke:none"
         id="path594"
         inkscape:connector-curvature="0" /></g><g
       id="g596" /><g
       id="g598"><path
         d="m 631.38,142.58 28.8,0 0,28.8 -28.8,0 0,-28.8 z"
         style="fill:#ffffff;fill-opacity:1;fill-rule:nonzero;stroke:none"
         id="path600"
         inkscape:connector-curvature="0" /></g><g
       id="g602" /><g
       id="g604"><path
         d="m 634.75,156.98 c 0,6.07 4.97,11.03 11.03,11.03 6.06,0 11.02,-4.96 11.02,-11.03 0,-6.06 -4.96,-11.02 -11.02,-11.02 -6.06,0 -11.03,4.96 -11.03,11.02"
         style="fill:#d0ff14;fill-opacity:1;fill-rule:nonzero;stroke:none"
         id="path606"
         inkscape:connector-curvature="0" /></g><g
       id="g608" /><g
       id="g610" /><g
       id="g612" /><g
       id="g614"><text
         transform="matrix(1,0,0,-1,670.14,322.6)"
         style="font-variant:normal;font-weight:normal;font-size:20px;font-family:Helvetica;-inkscape-font-specification:Helvetica;writing-mode:lr-tb;fill:#000000;fill-opacity:1;fill-rule:nonzero;stroke:none"
         id="text616"><tspan
           x="0 11.12 22.24"
           y="0"
           sodipodi:role="line"
           id="tspan618">12S</tspan></text>
</g><g
       id="g620" /><g
       id="g622" /><g
       id="g624" /><g
       id="g626" /><g
       id="g628"><text
         transform="matrix(1,0,0,-1,670.14,293.8)"
         style="font-variant:normal;font-weight:normal;font-size:20px;font-family:Helvetica;-inkscape-font-specification:Helvetica;writing-mode:lr-tb;fill:#000000;fill-opacity:1;fill-rule:nonzero;stroke:none"
         id="text630"><tspan
           x="0 11.12 22.24"
           y="0"
           sodipodi:role="line"
           id="tspan632">16S</tspan></text>
</g><g
       id="g634" /><g
       id="g636" /><g
       id="g638" /><g
       id="g640" /><g
       id="g642"><text
         transform="matrix(1,0,0,-1,670.14,265)"
         style="font-variant:normal;font-weight:normal;font-size:20px;font-family:Helvetica;-inkscape-font-specification:Helvetica;writing-mode:lr-tb;fill:#000000;fill-opacity:1;fill-rule:nonzero;stroke:none"
         id="text644"><tspan
           x="0 11.12 22.24"
           y="0"
           sodipodi:role="line"
           id="tspan646">18S</tspan></text>
</g><g
       id="g648" /><g
       id="g650" /><g
       id="g652" /><g
       id="g654" /><g
       id="g656"><text
         transform="matrix(1,0,0,-1,670.14,236.2)"
         style="font-variant:normal;font-weight:normal;font-size:20px;font-family:Helvetica;-inkscape-font-specification:Helvetica;writing-mode:lr-tb;fill:#000000;fill-opacity:1;fill-rule:nonzero;stroke:none"
         id="text658"><tspan
           x="0 11.12 22.24"
           y="0"
           sodipodi:role="line"
           id="tspan660">28S</tspan></text>
</g><g
       id="g662" /><g
       id="g664" /><g
       id="g666" /><g
       id="g668" /><g
       id="g670"><text
         transform="matrix(1,0,0,-1,670.14,207.4)"
         style="font-variant:normal;font-weight:normal;font-size:20px;font-family:Helvetica;-inkscape-font-specification:Helvetica;writing-mode:lr-tb;fill:#000000;fill-opacity:1;fill-rule:nonzero;stroke:none"
         id="text672"><tspan
           x="0 14.44 30"
           y="0"
           sodipodi:role="line"
           id="tspan674">COI</tspan></text>
</g><g
       id="g676" /><g
       id="g678" /><g
       id="g680" /><g
       id="g682" /><g
       id="g684"><text
         transform="matrix(1,0,0,-1,670.14,178.6)"
         style="font-variant:normal;font-weight:normal;font-size:20px;font-family:Helvetica;-inkscape-font-specification:Helvetica;writing-mode:lr-tb;fill:#000000;fill-opacity:1;fill-rule:nonzero;stroke:none"
         id="text686"><tspan
           x="0 5.5599999 17.780001"
           y="0"
           sodipodi:role="line"
           id="tspan688">ITS</tspan></text>
</g><g
       id="g690" /><g
       id="g692" /><g
       id="g694" /><g
       id="g696" /><g
       id="g698"><text
         transform="matrix(1,0,0,-1,670.14,149.8)"
         style="font-variant:normal;font-weight:normal;font-size:20px;font-family:Helvetica;-inkscape-font-specification:Helvetica;writing-mode:lr-tb;fill:#000000;fill-opacity:1;fill-rule:nonzero;stroke:none"
         id="text700"><tspan
           x="0 6.6599998 17.780001 27.780001"
           y="0"
           sodipodi:role="line"
           id="tspan702">rbcL</tspan></text>
</g><g
       id="g704" /><g
       id="g706" /><g
       id="g708" /><g
       id="g710" /><g
       id="g712" /><g
       id="g714" /><g
       id="g716" /><g
       id="g718" /><g
       id="g720" /><g
       id="g722" /><g
       id="g724"><text
         transform="matrix(1,0,0,-1,5.48,550.65)"
         style="font-variant:normal;font-weight:normal;font-size:24px;font-family:Helvetica;-inkscape-font-specification:Helvetica;writing-mode:lr-tb;fill:#000000;fill-opacity:1;fill-rule:nonzero;stroke:none"
         id="text726"><tspan
           x="0 16.007999"
           y="0"
           sodipodi:role="line"
           id="tspan728">A)</tspan></text>
</g><g
       id="g730" /><g
       id="g732" /></g></svg>